<svg aria-hidden="true" style="position: absolute; width: 0; height: 0; overflow: hidden;" version="1.1" xmlns="http://www.w3.org/2000/svg" xmlns:xlink="http://www.w3.org/1999/xlink">
<defs>
<symbol id="icon-sport-car" viewBox="0 0 32 32">
<path d="M22.317 12.664h-12.635c-0.28 0-0.506 0.227-0.506 0.506s0.227 0.506 0.506 0.506h12.635c0.28 0 0.506-0.227 0.506-0.506s-0.227-0.506-0.506-0.506z"></path>
<path d="M4.404 14.959h-1.871c-0.28 0-0.506 0.227-0.506 0.506s0.227 0.506 0.506 0.506h1.871c0.925 0 1.704 0.633 1.929 1.488h-3.671c-0.28 0-0.506 0.227-0.506 0.506s0.227 0.506 0.506 0.506h4.242c0.28 0 0.506-0.227 0.506-0.506 0-1.658-1.349-3.007-3.007-3.007z"></path>
<path d="M27.596 15.972h1.871c0.28 0 0.506-0.227 0.506-0.506s-0.227-0.506-0.506-0.506h-1.871c-1.658 0-3.007 1.349-3.007 3.007 0 0.28 0.227 0.506 0.506 0.506h4.242c0.28 0 0.506-0.227 0.506-0.506s-0.227-0.506-0.506-0.506h-3.671c0.225-0.855 1.004-1.488 1.929-1.488z"></path>
<path d="M30.967 12.734c-0.71-0.742-1.674-1.15-2.714-1.15-0.046 0-0.091 0.006-0.135 0.018l-1.627 0.45-2.397-4.605c-0.429-0.824-1.493-1.47-2.423-1.47h-11.341c-0.929 0-1.994 0.646-2.423 1.47l-2.397 4.605-1.627-0.45c-0.044-0.012-0.089-0.018-0.135-0.018-1.040 0-2.004 0.409-2.714 1.15s-1.075 1.723-1.029 2.765l0.367 7.326c0.014 0.269 0.236 0.481 0.506 0.481h0.169v2.211c0 0.28 0.227 0.506 0.506 0.506h5.328c0.28 0 0.506-0.227 0.506-0.506v-0.692c0-0.28-0.227-0.506-0.506-0.506s-0.506 0.227-0.506 0.506v0.186h-4.315v-1.705h27.883v1.705h-4.315v-0.186c0-0.28-0.227-0.506-0.506-0.506s-0.506 0.227-0.506 0.506v0.692c0 0.28 0.227 0.506 0.506 0.506h5.328c0.28 0 0.506-0.227 0.506-0.506v-2.211h0.169c0.27 0 0.492-0.212 0.506-0.481l0.368-7.329c0.046-1.040-0.32-2.020-1.029-2.762zM30.985 15.448l-0.343 6.845h-29.283l-0.343-6.842c-0.034-0.761 0.233-1.477 0.75-2.017 0.502-0.525 1.18-0.82 1.916-0.837l1.948 0.538c0.001 0 0.002 0.001 0.004 0.001l1.889 0.522c0.269 0.074 0.548-0.084 0.623-0.353s-0.084-0.548-0.353-0.623l-1.284-0.355 2.297-4.414c0.257-0.493 0.969-0.925 1.525-0.925h11.341c0.556 0 1.268 0.432 1.525 0.925l2.297 4.414-1.285 0.355c-0.27 0.074-0.428 0.353-0.353 0.623s0.353 0.428 0.623 0.353l3.841-1.061c0.736 0.017 1.414 0.312 1.916 0.837 0.517 0.54 0.783 1.257 0.75 2.014z"></path>
<path d="M28.253 10.571h1.764c0.28 0 0.506-0.227 0.506-0.506s-0.227-0.506-0.506-0.506h-1.764c-0.28 0-0.506 0.227-0.506 0.506s0.227 0.506 0.506 0.506z"></path>
<path d="M1.983 10.571h1.764c0.28 0 0.506-0.227 0.506-0.506s-0.227-0.506-0.506-0.506h-1.764c-0.28 0-0.506 0.227-0.506 0.506s0.227 0.506 0.506 0.506z"></path>
<path d="M21.616 18.915h-11.232c-0.28 0-0.506 0.227-0.506 0.506v1.353c0 0.28 0.227 0.506 0.506 0.506s0.506-0.227 0.506-0.506v-0.847h10.22v0.847c0 0.28 0.227 0.506 0.506 0.506s0.506-0.227 0.506-0.506v-1.353c0-0.28-0.227-0.506-0.506-0.506z"></path>
<path d="M18.808 16.377c0.28 0 0.506-0.227 0.506-0.506s-0.227-0.506-0.506-0.506h-5.616c-0.28 0-0.506 0.227-0.506 0.506s0.227 0.506 0.506 0.506h5.616z"></path>
</symbol>
</defs>
</svg>
